<svg xmlns="http://www.w3.org/2000/svg" xmlns:xlink="http://www.w3.org/1999/xlink" version="1.1" id="Layer_1" x="0px" y="0px" width="100px" height="100px" viewBox="0 0 100 100" enable-background="new 0 0 100 100" xml:space="preserve">
<path fill="#000000" d="M51,11.026c-21.525,0-38.974,17.449-38.974,38.974c0,12.283,5.688,23.232,14.567,30.376l-14.567,8.599H51  c21.525,0,38.975-17.449,38.975-38.975C89.975,28.475,72.523,11.026,51,11.026z M50.002,72.648c-1.726,0-3.124-1.398-3.124-3.125  c0-1.725,1.398-3.123,3.124-3.123s3.124,1.398,3.124,3.123C53.126,71.25,51.728,72.648,50.002,72.648z M53.02,53.639v6.5  c0,1.668-1.35,3.02-3.018,3.02c-1.667,0-3.02-1.352-3.02-3.02v-9.163c0-1.667,1.352-3.019,3.019-3.019v-0.001  c4.024,0,7.284-3.261,7.284-7.284s-3.26-7.284-7.284-7.284c-4.022,0-7.284,3.261-7.284,7.284c0,1.667-1.352,3.018-3.02,3.018  c-1.666,0-3.019-1.351-3.019-3.018c0-7.357,5.964-13.321,13.321-13.321s13.322,5.964,13.322,13.321  C63.322,46.991,58.921,52.27,53.02,53.639z"/>
</svg>