<svg xmlns="http://www.w3.org/2000/svg" xmlns:xlink="http://www.w3.org/1999/xlink" version="1.1" id="Layer_1" x="0px" y="0px" width="100px" height="100px" viewBox="0 0 100 100" enable-background="new 0 0 100 100" xml:space="preserve">
<path d="M72.5,5h-45C15.071,5,5,15.074,5,27.5v45C5,84.922,15.071,95,27.5,95h45C84.93,95,95,84.922,95,72.5v-45  C95,15.074,84.93,5,72.5,5z M56.482,81.561H42.354V70.288h14.129V81.561z M71.021,42.837c-0.755,1.86-1.685,3.45-2.79,4.768  c-1.113,1.326-2.344,2.446-3.691,3.376c-1.348,0.931-2.63,1.86-3.824,2.79c-1.201,0.931-1.398,1.992-2.336,3.193  c-0.923,1.201-0.879,2.703-0.879,4.505V65h-15v-4.16c0-2.578,1.23-4.738,2.043-6.482c0.806-1.742,2.029-3.223,3.113-4.453  c1.077-1.23,2.358-2.3,3.56-3.201c1.194-0.894,2.373-1.794,3.398-2.695c1.011-0.901,1.875-1.89,2.505-2.974  c0.63-1.077,0.938-2.424,0.879-4.05c0-2.754-0.666-4.797-2.021-6.116c-1.348-1.318-3.223-1.985-5.625-1.985  c-1.619,0-3.003,0.315-4.175,0.945s-2.131,1.472-2.878,2.527c-0.754,1.047-1.304,3.234-1.663,4.64  c-0.366,1.413-0.542,5.504-0.542,5.504H27.859c0.066-7.5,0.615-7.167,1.67-9.869c1.047-2.695,2.52-5.519,4.409-7.497  s4.167-3.761,6.841-4.875c2.666-1.105,5.654-1.779,8.95-1.779c4.263,0,7.815,0.523,10.671,1.688c2.85,1.172,5.142,2.6,6.885,4.336  c1.736,1.743,2.98,3.604,3.735,5.61c0.747,2.014,1.12,3.882,1.12,5.618C72.141,38.618,71.768,40.977,71.021,42.837z"/>
</svg>